<svg width="128" height="128" viewBox="0 0 24 24" fill="none" xmlns="http://www.w3.org/2000/svg">
  <defs>
    <linearGradient id="grad1" x1="0%" y1="0%" x2="100%" y2="100%">
      <stop offset="0%" style="stop-color:#667eea;stop-opacity:1" />
      <stop offset="100%" style="stop-color:#764ba2;stop-opacity:1" />
    </linearGradient>
    <linearGradient id="grad2" x1="0%" y1="0%" x2="100%" y2="0%">
      <stop offset="0%" style="stop-color:#f093fb;stop-opacity:1" />
      <stop offset="100%" style="stop-color:#f5576c;stop-opacity:1" />
    </linearGradient>
  </defs>
  
  <!-- Background Circle with Shadow -->
  <circle cx="12" cy="12" r="11.5" fill="url(#grad1)" filter="drop-shadow(0 2px 4px rgba(0,0,0,0.1))"/>
  
  <!-- Store Building -->
  <rect x="4" y="6" width="16" height="12" rx="1" ry="1" fill="white" opacity="0.95"/>
  <rect x="4" y="4" width="16" height="2" rx="1" ry="1" fill="white"/>
  
  <!-- Store Sign -->
  <rect x="6" y="5" width="12" height="1" fill="url(#grad2)" opacity="0.8"/>
  
  <!-- Search Glass -->
  <circle cx="15" cy="13" r="3.5" fill="none" stroke="#667eea" stroke-width="2"/>
  <path d="m17.5 15.5 2.5 2.5" stroke="#667eea" stroke-width="2" stroke-linecap="round"/>
  
  <!-- Store Grid Items -->
  <rect x="6" y="8" width="2" height="2" fill="#667eea" opacity="0.7"/>
  <rect x="9" y="8" width="2" height="2" fill="#667eea" opacity="0.7"/>
  <rect x="6" y="11" width="2" height="2" fill="#667eea" opacity="0.7"/>
  <rect x="9" y="11" width="2" height="2" fill="#667eea" opacity="0.7"/>
  <rect x="6" y="14" width="2" height="2" fill="#667eea" opacity="0.7"/>
  <rect x="9" y="14" width="2" height="2" fill="#667eea" opacity="0.7"/>
  
  <!-- Shopping Cart Icon -->
  <circle cx="7" cy="20" r="0.5" fill="#764ba2"/>
  <circle cx="10" cy="20" r="0.5" fill="#764ba2"/>
  <path d="M5 19h12l1-7H6z" fill="none" stroke="#764ba2" stroke-width="1"/>
</svg>
